<mxfile host="app.diagrams.net" modified="2023-08-21T14:58:02.928Z" agent="Mozilla/5.0 (Windows NT 10.0; Win64; x64) AppleWebKit/537.36 (KHTML, like Gecko) Chrome/115.0.0.0 Safari/537.36 Edg/115.0.1901.203" etag="zHfk4LWTOqtwvjvw8-0u" version="21.6.8" type="github">
  <diagram name="Page-1" id="2cc2dc42-3aac-f2a9-1cec-7a8b7cbee084">
    <mxGraphModel dx="1434" dy="764" grid="1" gridSize="10" guides="1" tooltips="1" connect="1" arrows="1" fold="1" page="1" pageScale="1" pageWidth="850" pageHeight="1100" background="none" math="0" shadow="0">
      <root>
        <mxCell id="0" />
        <mxCell id="1" parent="0" />
        <mxCell id="7026571954dc6520-1" value="" style="strokeWidth=1;shadow=0;dashed=0;align=center;html=1;shape=mxgraph.mockup.containers.browserWindow;rSize=0;strokeColor=#666666;mainText=,;recursiveResize=0;rounded=0;labelBackgroundColor=none;fontFamily=Verdana;fontSize=12" parent="1" vertex="1">
          <mxGeometry x="40" y="40" width="771.83" height="2120" as="geometry" />
        </mxCell>
        <mxCell id="7026571954dc6520-2" value="Page 1" style="strokeWidth=1;shadow=0;dashed=0;align=center;html=1;shape=mxgraph.mockup.containers.anchor;fontSize=17;fontColor=#666666;align=left;" parent="7026571954dc6520-1" vertex="1">
          <mxGeometry x="60" y="12" width="110" height="26" as="geometry" />
        </mxCell>
        <mxCell id="7026571954dc6520-3" value="https://www.default.com" style="strokeWidth=1;shadow=0;dashed=0;align=center;html=1;shape=mxgraph.mockup.containers.anchor;rSize=0;fontSize=17;fontColor=#666666;align=left;" parent="7026571954dc6520-1" vertex="1">
          <mxGeometry x="130" y="60" width="250" height="26" as="geometry" />
        </mxCell>
        <mxCell id="7026571954dc6520-4" value="&lt;font color=&quot;#000cff&quot;&gt;Solution Name...&lt;/font&gt;" style="text;html=1;points=[];align=left;verticalAlign=top;spacingTop=-4;fontSize=30;fontFamily=Verdana" parent="7026571954dc6520-1" vertex="1">
          <mxGeometry x="15" y="170" width="340" height="50" as="geometry" />
        </mxCell>
        <mxCell id="7026571954dc6520-15" value="" style="verticalLabelPosition=bottom;shadow=0;dashed=0;align=center;html=1;verticalAlign=top;strokeWidth=1;shape=mxgraph.mockup.markup.line;strokeColor=#999999;rounded=0;labelBackgroundColor=none;fillColor=#ffffff;fontFamily=Verdana;fontSize=12;fontColor=#000000;" parent="7026571954dc6520-1" vertex="1">
          <mxGeometry y="310" width="770" height="20" as="geometry" />
        </mxCell>
        <mxCell id="7026571954dc6520-16" value="Title 1" style="text;html=1;points=[];align=left;verticalAlign=top;spacingTop=-4;fontSize=15;fontFamily=Verdana" parent="7026571954dc6520-1" vertex="1">
          <mxGeometry x="20" y="330" width="170" height="30" as="geometry" />
        </mxCell>
        <mxCell id="7026571954dc6520-21" value="" style="verticalLabelPosition=bottom;shadow=0;dashed=0;align=center;html=1;verticalAlign=top;strokeWidth=1;shape=mxgraph.mockup.markup.line;strokeColor=#999999;rounded=0;labelBackgroundColor=none;fillColor=#ffffff;fontFamily=Verdana;fontSize=12;fontColor=#000000;" parent="7026571954dc6520-1" vertex="1">
          <mxGeometry y="580" width="760" height="15.05" as="geometry" />
        </mxCell>
        <mxCell id="7026571954dc6520-22" value="" style="verticalLabelPosition=bottom;shadow=0;dashed=0;align=center;html=1;verticalAlign=top;strokeWidth=1;shape=mxgraph.mockup.graphics.simpleIcon;strokeColor=#999999;fillColor=#ffffff;rounded=0;labelBackgroundColor=none;fontFamily=Verdana;fontSize=12;fontColor=#000000;" parent="7026571954dc6520-1" vertex="1">
          <mxGeometry x="15" y="610" width="200" height="200" as="geometry" />
        </mxCell>
        <mxCell id="YTZzgmdHZ9tuUAiKQtrG-1" value="" style="shape=image;verticalLabelPosition=bottom;labelBackgroundColor=default;verticalAlign=top;aspect=fixed;imageAspect=0;image=data:image/png,iVBORw0KGgoAAAANSUhEUgAAB2wAAAB0CAIAAADGulXvAAAAAXNSR0IArs4c6QAAAARnQU1BAACxjwv8YQUAAAAJcEhZcwAAFiUAABYlAUlSJPAAAAASdEVYdFNvZnR3YXJlAEdyZWVuc2hvdF5VCAUAADKwSURBVHhe7d15fBXV3fhx/vj5/LrYxz62j7W29tH6q0vdHq3WWls33CpaF6qCSl3Q4kZdKhZcUBFRRNlEkU1B9h0CYQshYQ17gIQtQCCEQEISQkhC1jvz+07OeDI5987NTbg3BPi8X99XXveeOTN35szcO2e+mXtuKxsAAAAAAAAAAB8kkQEAAAAAAAAAvkgiAwAAAAAAAAB8kUQGAAAAAAAAAPgiiQwAAAAAAAAA8EUSGQAAAAAAAADgiyQyAAAAAAAAAMAXSWQAAAAAAAAAgC+SyAAAAAAAAAAAXySRAQAAAAAAAAC+SCIDAAAAAAAAAHyRRAYAAAAAAAAA+CKJDAAAAAAAAADwRRIZAAAAAAAAAOCLJDIAAAAAAAAAwBdJZAAAAAAAAACAL5LIAAAAAAAAAABfJJHRQk2cZt96V2bfARnucwAAAAAAAADHA0lktDhr1tv3tbe/f5aTRP4/P5xy1XUJ02fmuNMAAAAAAAAANC+SyGhBCgrtV7o66WMVKoms4m/tV2xKO+zWAwAAAAAAANBcSCKjpRj4lX3WBXUZZCOJrKJLt40lpdXuDAAAAAAA4MRhpc0OjHqiptfVNR9cRkQ5el0tbSst7LY1EG0kkXH8zZpr/6F1vfSxiuAkssQ55836atgud04AAAAAAHAisBL6mHlPIgYh7ey2OBBVJJFxPG3eard/2swd6wiZRFbxp1uT5ifkuksBAAAAAAAtmJU228h1ErEL7kdGLJBExvFRdtR+q4eZNTYiTBJZxd+fXr1zV4m7xFNY4aHK5CUHdaxYWeBOiLFf/nq23hc33LLILQUAAAAAoD5nFIugXCcRo5DWdtsdiB6SyDgOho+yz7/cTBkHR4NJZBXv9dwcCFjuok9Jc+cf8DbIOefNcifEGElkAAAAAEAkGAe5WaPX1W67A9FDEhnNKnGxfes9ZrLYLyJMIkv8v0vnjhqzx32NUw9JZAAAAABAS2ZmOYkYh9vuQPSQREYzydxjP/OSmSYOH5EnkVXc0WbJshXNNJJDi0ISGQAAAADQkhkpTiLW4bY7ED0kkdEcevaxf/AzM0fcYDQ2iayi00vrcvYfdV/41EASGQAAAADQkhkpTiLW4bY7ED0kkRFb4ybbl/7ezA5HGE1LIkuc/pNpn3y2zV2DUwBJZAAAAABAS2akOIlYh9vuQPSQREaspKy2733YzAs3KpqcRFZxxTULJk/LdtcGMUASGQAAAAAQCSPFScQ63HYHoockMmLlmzH2b68188KNimNMIv/o5zMfic9fdbjGXSFEG0lkAAAAAEAkjBQnEetw2x2IHpLIiK3PPrfP/o2ZHY4wjiWJ3Hbsvhv2WpfutTdVumuCqCOJDAAAAACIhJHiJGIdbrsD0UMSGTFXXGy//YGZII4kmpZEvnfgrjuzApfutVWQRI4dbxL5z7cmuaXfyc2rmDgl+8OPt77/4WYV34zanV9Q4U4GAAAAAJwyjBQnEetw2x2IHpLIiJWEMveBsjvLfv5VM00cPhqbRL7tnS337azW6eNGJZG3Zxx5tcuGn50bZyzTG6edPuW2vyweNWZPZWXAne07FRWBH545TdeU5bgT/F11XYKuf8ZZM6qrLXeCj1vuSNb1jZ/Ok1fXkyQee2KVOyGUzMzSN97cdO4FdfnfkPGnW5OGDNtVXh5uMJBfnD9L17+xdV0SecXKgkceS/m//zlVT9UhbXjXvUtSVha4VQEAAAAApwAjxUnEOtx2B6KHJDJi5dK99rMH7TX1bzxdl2q3e8pMFvtF5Enk655d+7f0cm/uWEckSeQ3u6cZCwwfl141f8+e+jly2777vqXeOhk7StwJoeQdrPBWlkhafNCdFkp1tXX6T6bryk8+s9qdUCvyJHLfARmnnV5Xs8E4/6L49M3F7sxBvElkdSdy4aHKNvfXa4eQ8R8/mjp+0l61EAAAAADASc9IcZ6yERj1d2v9FGt/un0o2y7cY+1ZE0geVNP3RqPasYfb7kD0kERGrOg0bpcCO6PKLVQSkuw7HzBTxkY885K9fUfgrXfTjfyjEZfcvbTd6hL9WsGxqaHhE6bN3GcsM5K4/HcLqqrq3Y/c//MMb4WR3+52J4Ty7dg93soS3d5Jc6eFsmp1obfy6HFZ7oRaESaRl6cUeKtFGOdfFF9SWu0uoj4jibxla/F5F8brkvDxo59Oz9prJuIBAAAAACclI8V5Ksagu6zUqXZlqdsiXkU5gYQ+Zv1jC3fJQPSQREasGMncnofsvPpDI0yabl9zk5k7lmh9r5242K0jtm470r7DSiMFKXH2ZfPaLTpkvEpwNJhEvuzq+d7Fnnb6lCuvXXDrncneuPn25LN/VZcwVTFhcr17abdsLfZOffaFte6EUDo8tcpbWeKaPy50p4XSb2C9DHXewXpbFWESufVdi73VJH77v/ONLb3ljuTgkS4GDd7pLqI+bxL54ivmeYdIjiS6vr3JXRAQA0fLK4uPlFlWAwPFAAAAAGgGRorzVIvAkAetnUttS9+LZjnZ5GrPpX1lqbVyVE3v64wZmxzuYoHoIYmMWDGSuRJX7LUHFdsV9VM6X42wL7jSTR+ff7k94lu33DB7zv7f/2mhSj6e9qMpD8/IvSbbXH7ISAs7nMWGjUU6pylxzR8XZu876k4LMnZClrdycK72nPPqkqqXXjXfLQ3lp+fM1DV1GKlhr4fap+hqV167wC39TiRJZNkub52LLp+3Y6fvgBvzE3K9Ixrf0WaJO6E+bxLZG5dcOe/ZF9YOGLQjMSnvQG65Zdl7s4/KHrz+pkXearfemewu6MS0P+/QwFFzPhse9/moubn5h93SWqs27JDyYRMWlpSVu0WnsEDAWpma8Xqvb+995uMnXh80KX5F6dGG/rdTSzXjxPgVlVXVblHEDhwsatPxo7Ou7ZiUku4WnZJU43fvN1E1/sgpSYVF4UbaQeTkXS/vfTlEdUjzZh8o4P8WkZubnOptQImFyzcdLef3cAEAMVdRWZW4PO2VD76RPtI/3hwydd7KCDuoLYRcZci1hpw6pcPsFtm29Jml5yyFcoZ1i1oYI8V5asWA1lb6HDtQe2NdZZm1NSEwrpNT3vu6wPzeztAWKrlcfiSQ/Hm9GY8hnAUCUUUSGbFiJHN13Jhjjz7i1lGqq+1en9lvf2AfbSjhNvCLHQ98vffmbMtYZpgIn0T+ZtRub1pzRlyOO8HHDbfUpUEvuXKeW/qdZ19Yq6dKFB4K/drrU+tlrnWMm+g7TLA3Xfuvf290S78TSRI5bvZ+b51hIzLdCT68aeufnjPTLa0vOIl84WVzx07ICgRC51COlFSfeXZd9vz8i+LdCSemCbOW/eC3j6mYkVBvlGo16a/P9o56wq6ouPSF7sOkszsrMdyt7i2HdMe7fPStbigVrR97PyNzv1vDn2rGzu+NiCSp9OWY+dIs7w+cXF7hjJ4jDfX4qwMvvu3lFeu3qwqnoJLS8n99OMrb8hJXtnl96Zqtbo1jkJmd1+G1gdLm69Mb+DBpghPiOJdj+LoHuhnN+4vrO02KX9G0PLJsrGyybLhsvlt0svto8HSjASWkEXbsOeDWAAAgBnJyD0lH0TgBRdhBbVAU+0hh+gZylSHXGrLa0mF2i2q/hyc9ZymUM6xb1MIYKc4mRGBGNys71S4vdu7hLdhtLRsWxft2Iwlr3WQrb7uVmRIY0c6YFD4Cc3rYZYecVigtCMzvbUx1UswbZ9o1zoWMLD8w6u9mhSaF83JAVJFERqwYyVwj7j1gxzXyMnlumd0211xOgxE+ifxez806pymxPrXIneCj43N1aeIf/Nc0t/Q7k6Zm66kSs+eE7oX0/nSbrvPSK6n68VPPrnFr1Lcrs1TXkZgzz7y6jiSJ/OWQnd468xbkuhN8GD82WFlZbwBoxZtE/u9fxH09cndNTQOpkz/dmqRnCW7AE0jp0Yp/vDlEdzpf7/VtRWXdyN+xSyKH7C+2ZDMSVsvaXnzby19PXpSVk5+Uki5d4eAWC6lRSWSVjfJWrq6pUQnlU5Ns/se1bXLWtR17DJwsLT9t/ip18NzUrvuxJ+l0CjUWafoT4jjXLTB0fMKS1VvmJqeqy9Gr7umyZUe2W6kxYve50WKpt+0jnfsuXL5J2nD4xMQr27wuJV0/Gdvg5wMAAE0j3fgXuw+X0410UAeOmiMnoDEzlvz54XekpN0/++UX+v6oeISi2EcK0zcI2Vk66ZPI1sYZ7p28dSwrd1vN4PuMmrELK3Ol87JH8gKjOxqTwkXfG60t8517jWsqrTXjQia+ncEu9q53Fl511FrylTG1aeEsDYgqksiIFSOZGzIez7WXRPB1/5QK++k8c94II3wSuevbm3ROU2J7Rv17pIN06bbRW9/ImRYdrjrt9Lqpb3YP/Vt53rGJc/Mq9NAW55w3y61R36gxdb/C970zplZUmPncSJLIn/Xf7q2zbEW+O8GHUX9fTohRPrxJ5D/dmuSWhnVHmyV6Fgm39AS0ZUf2Vfd0+fVNL34+aq78vald993ZB91png7ftl05PQZOvveZj7v2HrNnX10Fy7I2bctSIzw80rnvxNnL9Rfo1B0H3jtq9S2Zmdl57f/Z/xfXd5KFX9/2rQ6vDZQSNVdI8iplZSEGBVblgUCIfwxEXXBud+marbI5+paKisqqmQlrnnh9kCpcmZqh72RXzajmVfd0eDdZ33pcVFwmf1XuSS4G2nT8SNpKt5u+B0RaeOSUJGltKZTdIbtGtYyuuWrDjhkJq6WChDyornF7qN41lL/yOJL0VmUt94lHVVVVeXlzDHKiDlFpk/Fxy/QxkJN76K4nP5RCuWRSJWHaXx+KGbsPSIupdss+UCCTpFVv79DjrGs7yqJubv+u2pu6viykY9fB6hiW5S9YutGv9ULuFL/j3Fv5H28OkUs+vy89NI/gS8R9uYXSLFKiLuf8tl0fcsvWbvti9Dx5IO0px7NsrMwrGy77SJ5KTXWQy9/07XvVLJ8Oizt0uO4y0tsm0uD6Q0a/X9am7ZKPINWG0rb6Y+fB5/sM+Cb+2K+Tj1Hw58PwiYlSIu9itW7edTaOn/Cb0+D7XX8yqONWHcMhd43UkYaV5pWn8kKDxy7wXsnL+uh3kKyMrJJ6IWOSsfJhHPePDgA46SWlpEsfRjrwySs3u0W2nbY9S3WcZi9ap0q8H+NydvD2kcKcoEP2kaRczh1yBpHzSPD5wntGkzOXvi6Q5Qf3DbQIk8gtrftkpDgbFYHpbzg3IIuyQ9baiYFF/a2DO6T9bCsgT43KsYumJZEDIztYuducGYtyAhM7G1N1WMuHO0MkyxZtW1jT90ZjahPCeUUgqkgiI1aMZG6YeCnf3uAzAtWWSvu1ArN+oyJ8Erl7j3RvTnN5ipMfORbeYX9vvj3EmL+lpdXfO8Mdbviyq52uwMOP1g0csXFTvaF1lU4vrdMVQo4jHEkSedDgenciT5/ZwMAdkTiVk8jSG5P+Wbt/9svYfeC+f5gdOJX9vO6BbtJdkwcq9O2f0lOcFL9C5ch0PP7qwLwCZ+97M6fy1NtB1EkrFfJYSpzXCyUQCKSlpc2ZM0f+1nyXDxVSvnXrVilPTU2trm70WMON1WfoTFnVi297OT5pnU7LatKvNQa7kD53vxGzVU1vU6ht926yTj9JE6nusg6ZUbebSvBJ2xpfWpT2V8MO6JqyENXjl5AHMlVmlOuHrp+MVSU3PPS2qvDB51OCt8WrsLAwMTFx0aJF8sAtqlVUVJScnJyQkJCXFy77HxVjZyyVVb3ziZ7782q/N1dLtndzRrZcP8iVklxCRNL+crVz99O9dAV1h460qi6RkAaUZlT1H3iuj7yoPJD2PFJ69LPhcbqaCilRyw/eKXKcyLqFPM7lAkxVlh0nO0IeyKrK21BfgDU/vZ46iayPJTnsZRv9tl1Xe/6dYapclqCOZx3q2k8VSpu3fux9Pem1niPVh4NfA8oktW7X3t+1w2tOBdWGsxLXqgNYyqWmPJAPKO/h0fz0u1gnkdVRdOuj72Xl5If8qHzlg2/UpXWYzYnk/a73mnpFdQyH3DVL12xV/6PS8fBLfdXHdch3kFz8ywuduB8dAHByk4/onoOmymdyx66DS0rr/jknn8/r0zOdfshup7sevo8U5gQdso8kZw05d3jL9Sk7zMkuZN9A0+csOZG5RUFJ5BbYfTJSnI0Ka8lX7mgPqVNVSWDcc3bRPufH6DKSvivpZO1dpwe7CCT2VeXOpK8fde4FLjvkTCo7ZGUkS4lTPq2LXXLQWciGGc7AxPJgzTinPLGvLMGpXFFi5aQFZnRTy9FJZGd9al9d/npfKGQ4q3rI+aaadWCLet2QEZjXSyXKray1NV+0MaY2IZxVBaKKJDJixUjmNhhvFdp76me05pfZ7Rs/foUR4ZPIxiAP739Y9+/opvFmpb93xtTqavMMPSu+bmziV7tskJKhw3fpkk/7hfjS0+W/W6Ar9OodYjDTSJLIxlAbL75c+02ZY+P9IcFTKoksvTo1lsWAkXMCAUsNGhCcB5EYOGqOdE9XbdhxU7vu8rTHwMk1NYHd2QfV0xGTEisqqzZnZKung76dJ106Na9emtFBDNlfDCkQCGRkZMTHx8+ePVvnkVUGWUrE5s2bm+Fm5J1Zubp7Lf1X6chKR/lIiXtjuxrs4roHuq3euFNaZnzcMunaSq96Xe3df96mUEkxlQtT8xrpJ+Opbijpykuryp6Sx1Ii6yNtrlLbsmJ79h3UNR98vs+2XTkS8kCePvbKgOIjZVJf+ty/vunFlNQMWay8upQ/8fog733lwYqLi5cuXRoXF5eYmKiTQSoNJIVJSUmHDsU8c2c0SEiRtL+UfD15kVz8yF95LCXqDh21R+SpkYyT6N5vohzkmdl5W3fsk+srad707c6A7wuXb5IlSHtKq+qdIgd/2vYsWclPhjg7RTV78HEubyKZV/8nZtnabbKbZOuksqrQ/IJbQK4GVTZTmkim+m273jrZnIRlG7Ny8tW9S6oBZZJUqF2euxNlmbJA2QXqoleORrnK1Q34Yvfh+YXF8kGkdp98NMkHlF43aSVpur37C/ILj8gVqZT0HT5L/f/gnb4T7n3m4+P7wztqAzu9NSQn95BstX73qa1QH5Wy+bKSss5SR67AZRuTUtLLK6r8NifC97tx3KpmD941u7PzZD9Kycs9vpFLcWlJlQVQ9/Krd5Css7rRO3nlZlnbNh0/OnCw6MT96ACAk5t0OaT/IJ/ecg5yi0IJ30cKc4KWqcE9BOn9ytlBzlxyXVBdU/Nu/4kyVZ7K6UxfF0hHSNZNOkXqqepuBfcNNH3O0p0lYWxdC+w+GSnORkUgeZBdU9utPZIXmNvTmCrhDDp8tP4tWVbA2jjTmTr4PivPvNCWEikPzOjmJIJFiXuOtlKnhhg3o/yILF8W5SaRK0rsSk8zVh0NzPtIr0lwBMZ1sg85fcJIk8i7V9UMusuY2oSoXTkgmkgiI1aMZG6E0afILqqf15pWat+936wWeYRPIi9bke/NaX7vjKmvvbEhfu6BzMzSpv2D1ljgylX1biYSnV+tGwRZXkhK9mYf1SV3tFmiqmlHSqr1VInVa8wFikiSyNszjnjrSDzXed3MWTkZO0oaHMjYzymbRJbu3RV/+Zf0FNds2ilPpYMo/TPpLEqXUVVQHT7vTaADRzlJDZUgk06hMVV9g1tNVfPq3J/RQQzZX/QTCAS2b9+u88iVlZVbtmzRGWTv7ckxJes8eOwC1SFWIW21MjWjsqr63x+Pkafd+02U3rnUlI51x66DpUQlaLxNobrj3kZW3XfdUMZT3VCyd6RVpW3lsbRz7ay2tLy6W1b2ha6pOutC7SAplElZOfm3PvqePJVVlY545H3u4uLiJUuWxMXFLVq0qKCgoPnTQEaDBIuw/dVhKU91M6pjL/gCSdW/7x+9Cw6Z4wLJOsglllyAybtG7cTgnZKbf/jzUXMl5EHwcS5XZTKvvNF6fzVj49Y9fhvVnHQL3Nz+3Xuf+fiuJz9UtxG1qz+cYvC2B2+dohpQHXiqRO1E2U2ys+SpPhq9R/Xc5FSpL5Gx+4Ac1dfe33V7Zo5aN2kuvXf07laZVnkLBI7rt1kVtYFGyDW5ujlLvROf6TZ4X26h2sah4xOkRK7VKyqr/DYn+NAK+X43jlvV7HqqceDJB7587KsS+Rz4bHjcxPgVJWXlah1krdS8sp6ytlKydM3WE/ejAwBObnJelt6RfD7LOcgtCtJgHynMCVqeBveRFMuy5HSwO/tgtz7jZKrqpKmTnfe6QM5rcqKRv/I4uG+gBZ+zhLF1LbD7ZKQ4GxdftLEOSA/huw5MTaXzw3orvq4Z0NqZ2vu62qm1KeZZ3Z3fqdu90qlcWhAY95xz13Dt7clWyjdS2do8z5lUUxlIHlSXRK6usLbMDyzsa62doDK5dnFuYFqXQEIfu9zp3MrynXlVEln25971gVnvWNsXOSMdy/Pti9z1DBXOfdBq9RoYzmKEO5zFlvkMZ4GWiSQyYsVI5kYe1+6zhxbrk4PrmyP2H/eZNSOJ8Elkuey88LK53rSmjh+eOe3qPyS077DyvZ6bJ0zeu2FjUXl5w0m36mrrjLNm6IX0HeDcguR18RXz1KTvnTG1tNS99Vqvg7yoMeRx/NwDapLET8+ZGTK1HUkSWXiH2vDG93887fLfLXiofco776ePGZ+1bv2hsrKI0ounbBJZ5Xyv+Mu/3h84WTp58lceS8nIKW4jqA6fN3/n7QKqx0+8PkjfkBs8Vc9rdBBD9hfDCAQC27Zti4+PnzVrVlJSksogp6enN1sG2auouHRmwhr1uyWPvTIg92CR6uZ+NW6BqmB0fL1NobrjKgenKqvuu24o46luKOm+68fzlzj3/nunykt4a6qp8kCeSqFMku7+pPrfMby9Q4/4pHWRJOAOHz68ePHiuLi4BQsWJCQkqKyQ8S312PH+38Itqk+3diTt752qjr3gCySjvqiuqZHWu/b+rlKuQ+3E4J3i5d1BqkQW1W/EbLkK0stp+/ynqzbskB2kKjQ/3QLeeKbbYDVsdCTbblxbqgZUB54qUUe12h3CO6N+HBwyVa2bejk1r5DH3m/dXnzby32Hz5KrYnfy8aA2UN29e3P7d+Xx7/76b7nKVVNVgwSHOsb8Nke3TITvd2+zB0+VB/JU3vX7cs13rn5HBIcs88T96ACAk5tOEOsUcDD9Ce/XRwpzgpan6iysn4pDh0ve7T/Re1KQUKczdRryXhd4eU9SbtF39ItKHbcoaD1bYPfJSHE2Oga0ttZPsUvynRSwVrgnMO65wJTX1G3I1raFgRndJKwlg+2qo3ZNlbV0iF5CYHTHwJweTn7Z+Y27KmvJVzqJbGWuVHWsNeOcqYEaK2WkW7JuspW33cpMCYxo5yaRjx6WV3QWOOElu9Q5R+vZQ4es+bbE2hettFb7/LDesIes7NqviFWWWYu/NKY2LZylAVFFEhmxYiRzGxu35dgT6p8ryyy7f5FZrcEIn0QW8xNyvWnNMHHa6VMuvGxux+fWpm+uu8ssWNt2K/Qsf2vvDKuqZe+ru+nYO7rxCy+v1+Vz5zu3J2tvvZumJz38aIpbWl+ESeTVawr1cMwNxgWXzHmi4+qQNz5rp2YSWd/mFhzqK9hSR3X4Hny+j/olDaEGqFUlwd3B4KkvdB9WFo0kstBDWMTFxcnftLS0ZhgKWSkpKx82YeFnw+O2Z9aNwb10zVZZf+lbb9qa5e3mCtlk2XAp6TN0pjxVTaF62Ko7ru6yVJVV911NDX6qG0q678GNll9Y3KbjR1IyeU6Kt6aaqtJGUiiTVInslyWrt/QdPkv9bNrFt72s81zh6bsIRWJiYkHBsY66Hjn9ozHqfnlFjk81EkvPQVPLjlZE3v7yVF+WqGYMvkAy6ou5yamyDle2eX34xMTd2Qel0WQWCZlXN7sc/KqyXOdIO0vIg+BdJuSCJzf/8IKlG2XlVXL2zid67t3ffE1q0C0gqyQrLCEHvDstsm3XTaeoBvQeeOqo1jvIO6N+rF9dh1wSq3VTL6fmVWSSrMnIKUlPvj5IXVIOHuteHh8X3ret/tVHNbCPTFUNoge70CEfwqpCyM2RCsbBE/L9Lh9Eaqq32fVU49PA+8kjq6rWQb+Dvp68SM2rQ78FTsSPDgA46cmJQz6Tb6r/s9gHDhapk4X0THSfx6+PFOYELU91D0E9lbPVW5+Nl6dtn/9Uztp5BYfHzFgiT9XpT52G5KX115ikOyELVJ2K4L6BJqcYuXaQqQNGztFJYSlUozCp9RQtrftkpDibHoPvc36Dzhll2Nl2a/uiuhuKgzhjKEv9XcvVkMp1jCTyd0MtywNnalV5YH7vulf8Ltwk8hH3h/Xkrzx2Zg+fRJaac3s6IzKL0oIQSx7Q2toU5w76nJMWGNHOrNCkcF4OiCqSyIgVI5nbqOiQZy/xuTsqp9p+/5BZP0w0mEQWs+L3n39RvDe52WA83WlNVVW9W4a1IcPqxjj+2blxbmkt76SPPqkb3XjazH26/LU36t2Xd8sdyXrS0OG73NL6Ikwii+QlBy+50r0VOsJo227F0aOh71o9NZPI+nthwycmLlm9RYU8lpKr7umyZYfzgwmqwyfV1I8+HzpcovLO6pYHtQQ9tfRoxYvdh8tUNWLy5Dkp8li6nunb90q3b9GKNKkpJSohojupOvUWiUAgsGXLlrlz527atKnZMshCd8HVsK1SoscnVd/aU3fLSg9YercydduuHNlwacmklHR5qppR9bDVAKPyVLrdgYC1L7dQ9ZvVVKmsevPByXfpvkubq1tOZDVUll9aXlpV7S+j3y9U2kj112UvfDY8buj4BHV7iPT71a/MqTWMhEoGLVq0KD8/3y1qFnIVoX5K5d5nPl6XnimNJpvQ/2vnbhTZdpVBi7z95anem+pQ1BdIRjJO1xdqX78/cLK6+1LltWUumTd4p6hRg9WBEXycy7tMdsT4uGVyCMlT2XGy+/Q77rgwLhENYbY9+JBTVAN6LyPDXKPqBvx48PTq2i8WyFxfjpmvxgNR66ZeTs0rx8NX4xbo/+jIWsm6yezvDZik1vC4UBuojxl1Va9XW31UylM5MuWpfB4mLk+TTZibnBpmc8or3JEuQr7f9SW3vLQcSyWl5SopoN7vwbtGf0NZjj1ZAWlqNZCl+oKzegfpF5K/sgmyVjv2HDhxPzoA4KS3Z99B9V2WJ18fpAa1P3CwSA0xoc9B4ftIYU7Q8lSdheWp6iPpU8/iVU7PX04f0ueXp+r0Z1wXyFlDjYwkFxfyNLhvoOnlyGvJ+VFOhbK0Qd/Ok5XU69kCu09GirNR4d4OvHulHlM4MPZZdyDj/J11ueAt8+VxvRjRztq2UKY4NxdnpwYW9bdWjXbSteGTyJ5bmJ37l2U5k191Bs1oahLZSRNvme8OtVxZZm1dEBjXySnvfV1g3kdWTpoaFsO5VXnthJC3KjchnAUCUUUSGbFiJHMjjHsP2HGh/4NYz5ZK+7UCc96QEUkSWdTUWJOmZr/w8vpb7kj++f/U5UbDRNe3N7kz1+e93Vhi5666/xv/rX3dTcpr1tYNblhaWn3a6W75ZVfPd0ttZ3CM038yXc+SmRm6aSJPIgvLcm6+fuX1Dbf9ZfEvfz3bO6NfPN1pjTtzfadmEln1KY2BX/WYm94O3+/++m+Ju578UP2y/8W3vax6ltKNU7/a/4vrO8nU69u+JY9vatddJUpU905KVFx7f1eVwlCZO53Ik6U92+0r6ZVKYUsmnVdZVb0t0qlVj/uNmC19X92JlyaS/rGqqX6QWub1JiWlRN1Cq0KW88Bz9ZLIqrKUywLXpu0yevPr0jPVwqW19di10qv23vSq00byQJ6qpJJew7bPf/rJkJkqLSsl4X8dq4WQI8o7FLUOteFSIfL2l6f62FOHohz/8i5Q877bf6JMNeoLNcyfqiCh3gj68izkTlF3oerXkgrqOFeVZf/K9Z7sCLXLZHccx7eAvkTUR45XmG0PPuQUeareIDe3f3f6gtVSEv4aVbfJI537vtN3grq9SP00vFo33dRCf+xItfcGTOrae4w0uMw7K3GtqnBcqA3Ux8zBwuKHXvxMSqTF5BDV6yyt9+an49TtxrLJsvnhNyfM+11fcutQF/bq/R68a+RolGNSSmTht3foocbckIXLS8hU/Q66++leshrqdmM1KPYJ/dEBACc9bwdVh3zUT5y9XD75pUL4PlL4E7TRRzp8pEz9d1PqyBnhhe7D5IXkqTr9hbwu0OeL4L6B1449B0L29PR6tsDuk5HibFRYqdOcRLAVsLYtrKkdB9laUTuCsJRmpwZGtLOLav/rfHBHzeD7ZKozYHFOmrV/c2DOB1Ze7SCTBbvdGdPjnUX5JJEDC/u6i9290knmDr7PLqz9IlFhljMuc5OTyBIDWlvrJjuDbLgs56VrX6seNXZzNPLI7gKB6CGJjFgxkrkNxo059mjz15gakFJhP51nLseICJPIhkNFlStWFnw9cvcbb276a9tlF1429z9+ZA4E8f0fTztSEvqmzosur7vb99ux7ndXvcMlB49ufMMtdQMW7812zyurVhfqwvMvklNdaI1KIhuKj1TJq4was6fbO2kPPrLikivnhRzyQq+S1ymYRJYul/qO2MeDp6suplJTE+jez7k9rWPXwSWl5TqblrxysxoCWDqRMxPW6Fmkyzhw1ByV2pCQZervOEuduIVrVT5I5pUlqGyaytyJtO1Z6o42qeMdJqJlks1ZtWFH2+c/VVuqVnti/ArpMasK2QcK1A0XEtIg0tU+dNj9v4uRlJSOsmp8qTZ0fIL3m4AyVTroXT76VvWzx85YGpwMkhbWqyH96UHfzlMzBteUB/JUCmWSPJVGVq+rwruzWj65ApFm0Ufa7R16zEhYrTLISuTtL3+NQzFxeZo6UNUNMkZ9IRcw7w+crHaKHMwjpyQZmU2/nSKM41wOpJTUDJWkk5BldnpriBp9+HgJn0QOs+3Bh5wib4pPh8WpndVz0FTZ5PDXqFIhdfNu3YDe3RecRBby0dRj4GR9MEjDTopf4T0Ymp+RRBbq1/CvuqeL+iE7aUbvR6UcAPKRKBsuk8JvTphDS47VF7sPl10jIfsoYdlGqaPe7yF3jSxTPrLUvwEkvOsg5C2m30HGYXlCf3QAwMlNPsY3bcuSD3B1ppaQs8aS1Vv0x7sI00cKf4IWRh9JOrH6rPTc20P7fz1bHni7WH7XBcF9A1WuyUp6e3ryosMmLNSnPKnf0rpPRoqzUREY95xdnOsuqHbMYvdxdYUaQdgdy9i2nJ/FK8xSQ0PYxQcCozs6P38nZJbCPU6oeX2SyM7txvvVN4csu6rcTfJaAVm+8yrHkkSuDSdJLatnCNTIi9b9cqCTRx557Hnk2kUD0UQSGbFiJHPDxBV77Ufi87u8m15W1sAX7b8Yav/zDTt7n/tUmVtmt801l6mjaUnkYOXlNQsW5hpjQUyYvNedXF/nV1N1nec6r1OFy1bk68J2j9eeezze/WCznvr1yN2qsN/ADF2olxPsWJLIwSorA0uX51/zx4XeZX7+5Q53sscp+8N6jRIIOD/EHPIL49W1g8B6x1HVpM9XXuGmWUOSuSp9fgykZZLurPSw9WCmBjU1ki2SznSYb9/LEkK2pyZTpc2bkDhTa6g75SeWMEeaEnn7G2RvlpSWh29PWbi8epi9FmanBB/nUtK0VT0uGtz2YNIO0qQh3yZ+GnVUq4PB753YMql1DnkAh9+cMC1TVV0TYYspshPDvFCYd5CaJH/d5wCAlkQ+usN/Sof5hA/P6CPJUzmJhDyXKeFPduH7BmreMCd3WWwL6T4ZKc7GRmBiZytvuzvsg8OyS/IDiX3dCr2vs1aPtSvcXL8ztXBPYEZXZ8Zxz9kFcold2z7VFVbWOifF7JdElhh8n5WZUpenriq30marlO6xJ5GdGHSXtfhLa8cSa88aJzbPc3+mb2QHZ93cPHKZterbY8wjO8sBoookMmLFSOb6Rbulh//nOjdfee4Fs/2G/Z2zwL7hDvv7Zznxw7Pt93rZZfVvjZ1YYrfOMRcuEa0ksjJxSrZOgEq88WboES1mxe/Xda64xv3ZIm+aeMQ3zjdhvZYur0sxt+/gppgfap+iC6dMr58794huEllJWnzQu8ynng0xogVJZAAAAABAJIwUZxNjQOvAtC7OIMU+vz4XGP9CYPobalCLeuWjO8qMakSLiEK9UO1QyOakmIWZR1495lhevbbVgWgiiYxYMZK5wfHw+rL//VtdklTHja2TFi5y/punbM2wH3/WTR9745cX2wO/cuso8kE7pNi+Jrveq0Q3iZy1t8y7qk//I/RgwaWl1d5BIdSoF9ffFGLACi3kYBc/OzdOlZx2+pSiw773pcYiiVxZWW+Z9zzgfoHdyzt4NElkAAAAAIAfI8VJhIzAqL9be9e7eeSifYEJLxkVIo/aVgeiiSQyYsWbyTXiwa2Vf+68wZtMDI6nnl2zPaO0+4dm7tiIK/9oj57gvqJyKGB/UlT3WuGTyL84vy4N+vCjKW6pPyNd+8hjvrPcemeyrjZn3oGiw1X6p/MuvmKeW6m++x9armdZvaZwV2apfvqHG52fa/MTSRL5qusSdIVb7kh2S8P6yc9n6lluvj3ELCSRAQAAAACRMFKchF/U3o+81j562FrxNXcio0UhiYxY0Wlcb9yTWXNXz+3eNGKYuPnOdUbK2C9uvtuOn+++rrK72n6zwHnF8EnkCy6Zo1/ugYeXu6X+jHTtk8+YP5Krfdxnm672zvvpk6bWjYPR+dVUt1J9X3y1U9f58OOto8bs0U/ffk8N7R9aJEnkP9yYqCvccEvtDws05L9+5t4ZLdHm/qVuqQdJZAAAAABAJIwUJxHrcNsdiB6SyIgVb+5YovVe676hWd4EYoMReRJZxQOP2Sn1k7obKhpIInvvz40ktZrpuTtY4rU3NrgTgqxPLdLVWt+1+Jnn1+qnM2fluJXq255xRNe5+fbkTi+t00+Tlxx0K4USSRL5znvqsre/uWyuW+qvpLRa15d4/MkQyySJDAAAAACIhJHiJGIdbrsD0UMSGbGi08e/z7b/NuWAN3UYYTQ2iazimZfsbRnuOjTI+8t13//xtP0HfH8wVxkybJeuLxH8+3heOsf6n/89/bwL4/VcJaW+P4x7/kV11X5z2Vz14IyzZriTfUSSRH7h5fXeOtszjrgTfEybuc9b/6NPtroTPEgiAwAAAAAiYaQ4iViH2+5A9JBERqyoDPIjCYVnXegmQxsbTUsiq+jytn0w312TMD75rG7QCYnfXDa338CMxKS85CUHg+Pfb236wX9N89bP2FHiLiiUx59c5a2s4sbW4ZKt3huWdYT8UTuvSJLIo0bXDY4hce4Fs3t/um3BwlxjG1V80GvLmWfXDYgssXR5iNYkiQwAAAAAiISR4iRiHW67A9FDEhmx0m7lkQtvW+zNGDY2jiWJLHHmr+xen9klpe76hLT/QLmRF448fv+ncD92J7yDGuv4oNcWd3IoEybvNepL9P+8gTurI0kil5RWG3nhyOOCS+ZYtb8NayCJDAAAAACIhJHiJGIdbrsD0UMSGbGyIqXgL39d6s0YNjaOMYl89Z/taXHuyoQxeGjdz9k1KhYlhxunWOQdrDBmkUhZWeBODqXocJVRXyIt/bA72UckSWQxeVrdj/s1KsZN3Osuoj6SyAAAAACASBgpTiLW4bY7ED0kkRFbY8ZnXfjd2L6NjSYnkc/8lf3pQHcFIjFl+r6zfhlnvHqY+MnPZ44el+XOHNb//r7uh/skzjhrRshber2uvWGhd5ZzzpvlTvAXYRJZJCTm/fLXs72Vw8ePz5rRb6DvfdAkkQEAAAAAkTBSnESsw213IHpIIqM59Phw82mnT/VmDyOJpiWRX/yXfSDXfd3I5RdUjB6X9Wb3tPsfWn7rncl+8cDDy8eMzyovr3Fna8jnX+7wzt717U3uBH9ffLXTO8v7H252J/irrra8s3z4cYgfwdMOF1eNn7S3e4/0Rx5L8c5lxL0PLvt65O5S/98AFG3brdD1O7+a6paG9XrXjXqW2/6y2C0FAAAAAJzUjBQnEetw2x2IHpLIaCaZmaVPPbvGSBOHj8Ymke9uay9f6b4cAAAAAABoIYwUJxHrcNsdiB6SyGhWCxfl3dg6yUgW+0XkSeRLrrFHT3BfAgAAAAAAtCg1va42spxEDKPX1W67A9FDEhnHwdDhu869oOGReSNMIn/Q225woGEAAAAAAHC8BEY9YSY6iZiFtLbb7kD0kETG8VFWVt317TQja2xEg0nkp563d2a6CwQAAAAAAC2TlTbbSHQSsQtpbbfdgeghiYzjKX1z8cOPphi5Yx1hksg3320nJLkLAQAAAAAALZyV0MfIdRKxCGlnt8WBqCKJjONv5qyca/640MggS4RMIv/qt/bQb9wZAQAAAADAicJKm+2Ma8H4yLGIXldL23IPMmKHJDJaiv6fZ5x59ozwSeSu79olpW59AAAAAAAAAM2AJDJakPyCis6vpoZMIj/ypJ222a0GAAAAAAAAoNmQREaLs3rNoXseWKaTyNfebM+MdycBAAAAAAAAaGYkkdFCjZ+09+Y71/X/0n0KAAAAAAAA4LggiQwAAAAAAAAA8EUSGQAAAAAAAADgiyQyAAAAAAAAAMAXSWQAAAAAAAAAgC+SyAAAAAAAAAAAXySRAQAAAAAAAAC+SCIDAAAAAAAAAHyRRAYAAAAAAAAA+CKJDAAAAAAAAADwRRIZAAAAAAAAAOCLJDIAAAAAAAAAwBdJZAAAAAAAAACAL5LIAAAAAAAAAABfJJEBAAAAAAAAAL5IIgMAAAAAAAAAfJFEBgAAAAAAAAD4IokMAAAAAAAAAPBFEhkAAAAAAAAA4IskMgAAAAAAAADAF0lkAAAAAAAAAIAvksgAAAAAAAAAAF8kkQEAAAAAAAAAvkgiAwAAAAAAAAB8tdoPAAAAAAAAAIAPksgAAAAAAAAAAF8kkQEAAAAAAAAAvlodAAAAAAAAAADAB0lkAAAAAAAAAICvVrkAAAAAAAAAAPggiQwAAAAAAAAA8NUqDwAAAAAAAAAAH60OAgAAAAAAAADgo1U+AAAAAAAAAAA+WhUAAAAAAAAAAOCjVSEAAAAAAAAAAD5aFQEAAAAAAAAA4KPVYQAAAAAAAAAAfLQqBgAAAAAAAADAR6sSAAAAAAAAAAB8tCoFAAAAAAAAAMBHqzIAAAAAAAAAAHy0KgcAAAAAAAAAwEerCgAAAAAAAAAAfLSqBAAAAAAAAADAR6sqAAAAAAAAAABCqqr6/0ZJIySKT2MrAAAAAElFTkSuQmCC;" vertex="1" parent="7026571954dc6520-1">
          <mxGeometry x="1" y="112" width="769.83" height="47" as="geometry" />
        </mxCell>
        <mxCell id="YTZzgmdHZ9tuUAiKQtrG-2" value="" style="verticalLabelPosition=bottom;shadow=0;dashed=0;align=center;html=1;verticalAlign=top;strokeWidth=1;shape=mxgraph.mockup.markup.line;strokeColor=#999999;rounded=0;labelBackgroundColor=none;fillColor=#ffffff;fontFamily=Verdana;fontSize=12;fontColor=#000000;" vertex="1" parent="7026571954dc6520-1">
          <mxGeometry x="-3.43" y="880" width="763.43" height="15.12" as="geometry" />
        </mxCell>
        <mxCell id="YTZzgmdHZ9tuUAiKQtrG-3" value="" style="verticalLabelPosition=bottom;shadow=0;dashed=0;align=center;html=1;verticalAlign=top;strokeWidth=1;shape=mxgraph.mockup.markup.line;strokeColor=#999999;rounded=0;labelBackgroundColor=none;fillColor=#ffffff;fontFamily=Verdana;fontSize=12;fontColor=#000000;" vertex="1" parent="7026571954dc6520-1">
          <mxGeometry y="1180" width="760" height="20" as="geometry" />
        </mxCell>
        <mxCell id="YTZzgmdHZ9tuUAiKQtrG-4" value="" style="verticalLabelPosition=bottom;shadow=0;dashed=0;align=center;html=1;verticalAlign=top;strokeWidth=1;shape=mxgraph.mockup.markup.line;strokeColor=#999999;rounded=0;labelBackgroundColor=none;fillColor=#ffffff;fontFamily=Verdana;fontSize=12;fontColor=#000000;" vertex="1" parent="7026571954dc6520-1">
          <mxGeometry x="-3.43" y="1550" width="763.43" height="20" as="geometry" />
        </mxCell>
      </root>
    </mxGraphModel>
  </diagram>
</mxfile>
